<mxfile modified="2023-01-10T03:01:27.086Z" host="Electron" agent="5.0 (Windows NT 10.0; Win64; x64) AppleWebKit/537.36 (KHTML, like Gecko) draw.io/20.3.0 Chrome/104.0.5112.114 Electron/20.1.3 Safari/537.36" etag="7ChomailG-gIuwtQC4aH" compressed="false" version="20.3.0" type="device">
  <diagram id="3a3YgJTvCr6xkkh10-PU" name="Testing/Decisions">
    <mxGraphModel dx="782" dy="515" grid="1" gridSize="10" guides="1" tooltips="1" connect="1" arrows="1" fold="1" page="1" pageScale="1" pageWidth="827" pageHeight="1169" math="0" shadow="0">
      <root>
        <mxCell id="P_EXMuqMaxGNaMI29JZp-0" />
        <mxCell id="P_EXMuqMaxGNaMI29JZp-1" value="About" parent="P_EXMuqMaxGNaMI29JZp-0" />
        <mxCell id="P_EXMuqMaxGNaMI29JZp-45" value="Title/Page" parent="P_EXMuqMaxGNaMI29JZp-0" visible="0" />
        <mxCell id="P_EXMuqMaxGNaMI29JZp-27" value="" style="group;fontSize=10;" parent="P_EXMuqMaxGNaMI29JZp-45" connectable="0" vertex="1">
          <mxGeometry x="120" y="120" width="560" height="45" as="geometry" />
        </mxCell>
        <mxCell id="P_EXMuqMaxGNaMI29JZp-28" value="&lt;font style=&quot;font-size: 11px&quot;&gt;Base Logical Module - Testing -&amp;nbsp;Decisions&lt;/font&gt;" style="text;strokeColor=none;fillColor=none;html=1;fontSize=24;fontStyle=1;verticalAlign=middle;align=left;shadow=0;glass=0;comic=0;opacity=30;fontColor=#808080;" parent="P_EXMuqMaxGNaMI29JZp-27" vertex="1">
          <mxGeometry width="560" height="40" as="geometry" />
        </mxCell>
        <mxCell id="P_EXMuqMaxGNaMI29JZp-29" value="" style="line;strokeWidth=2;html=1;shadow=0;glass=0;comic=0;fillColor=none;fontSize=10;fontColor=#CCCCCC;labelBackgroundColor=none;strokeColor=#CCCCCC;" parent="P_EXMuqMaxGNaMI29JZp-27" vertex="1">
          <mxGeometry y="35" width="560" height="10" as="geometry" />
        </mxCell>
        <mxCell id="FK4336sRruwgATMQe_8q-0" value="Title/Diagram" parent="P_EXMuqMaxGNaMI29JZp-0" visible="0" />
        <mxCell id="FK4336sRruwgATMQe_8q-1" value="&lt;font style=&quot;font-size: 11px&quot;&gt;Diagram: Base&amp;nbsp;&lt;span style=&quot;font-size: 12px&quot;&gt;System Logical&amp;nbsp;&lt;/span&gt;Module - Testing -&amp;nbsp;Decisions&lt;/font&gt;" style="text;strokeColor=none;fillColor=none;html=1;fontSize=24;fontStyle=2;verticalAlign=middle;align=left;shadow=0;glass=0;comic=0;opacity=30;fontColor=#808080;" parent="FK4336sRruwgATMQe_8q-0" vertex="1">
          <mxGeometry x="120" y="580" width="520" height="20" as="geometry" />
        </mxCell>
        <mxCell id="P_EXMuqMaxGNaMI29JZp-46" value="Legend" parent="P_EXMuqMaxGNaMI29JZp-0" visible="0" />
        <mxCell id="P_EXMuqMaxGNaMI29JZp-35" value="" style="group" parent="P_EXMuqMaxGNaMI29JZp-46" vertex="1" connectable="0">
          <mxGeometry x="120" y="170" width="560" height="50" as="geometry" />
        </mxCell>
        <mxCell id="P_EXMuqMaxGNaMI29JZp-37" value="" style="rounded=0;whiteSpace=wrap;html=1;fontSize=10;align=left;container=1;collapsible=0;fontColor=#B3B3B3;strokeColor=#B3B3B3;" parent="P_EXMuqMaxGNaMI29JZp-46" vertex="1">
          <mxGeometry x="489.44" y="170" width="190.56" height="50" as="geometry" />
        </mxCell>
        <mxCell id="P_EXMuqMaxGNaMI29JZp-38" value="" style="whiteSpace=wrap;html=1;aspect=fixed;fillColor=none;strokeColor=#82b366;fontSize=10;align=left;fontStyle=2;strokeWidth=2;" parent="P_EXMuqMaxGNaMI29JZp-37" vertex="1">
          <mxGeometry x="10.555801749271124" y="16.666666666666668" width="8.333333333333334" height="8.333333333333334" as="geometry" />
        </mxCell>
        <mxCell id="P_EXMuqMaxGNaMI29JZp-39" value="" style="whiteSpace=wrap;html=1;aspect=fixed;fillColor=none;strokeColor=#d6b656;fontSize=10;align=left;fontStyle=2;strokeWidth=2;" parent="P_EXMuqMaxGNaMI29JZp-37" vertex="1">
          <mxGeometry x="10.555801749271124" y="28" width="8.333333333333334" height="8.333333333333334" as="geometry" />
        </mxCell>
        <mxCell id="P_EXMuqMaxGNaMI29JZp-40" value="" style="whiteSpace=wrap;html=1;aspect=fixed;fillColor=none;strokeColor=#6c8ebf;fontSize=10;align=left;fontStyle=2;strokeWidth=2;" parent="P_EXMuqMaxGNaMI29JZp-37" vertex="1">
          <mxGeometry x="10.555801749271124" y="39.333333333333336" width="8.333333333333334" height="8.333333333333334" as="geometry" />
        </mxCell>
        <mxCell id="P_EXMuqMaxGNaMI29JZp-41" value="Internal, System (Shared)&amp;nbsp;" style="text;html=1;strokeColor=none;fillColor=none;align=left;verticalAlign=middle;whiteSpace=wrap;rounded=0;fontSize=10;fontStyle=2;fontColor=#B3B3B3;" parent="P_EXMuqMaxGNaMI29JZp-37" vertex="1">
          <mxGeometry x="21.11604804664722" y="16.666666666666668" width="169.44395195335275" height="8.333333333333334" as="geometry" />
        </mxCell>
        <mxCell id="P_EXMuqMaxGNaMI29JZp-42" value="Internal, Organisation Bound&amp;nbsp;" style="text;html=1;strokeColor=none;fillColor=none;align=left;verticalAlign=middle;whiteSpace=wrap;rounded=0;fontSize=10;fontStyle=2;fontColor=#B3B3B3;" parent="P_EXMuqMaxGNaMI29JZp-37" vertex="1">
          <mxGeometry x="21.11604804664722" y="28" width="169.44395195335275" height="8.333333333333334" as="geometry" />
        </mxCell>
        <mxCell id="P_EXMuqMaxGNaMI29JZp-43" value="External, Versioned Contracts/Msgs" style="text;html=1;strokeColor=none;fillColor=none;align=left;verticalAlign=middle;whiteSpace=wrap;rounded=0;fontSize=10;fontStyle=2;fontColor=#B3B3B3;" parent="P_EXMuqMaxGNaMI29JZp-37" vertex="1">
          <mxGeometry x="21.11604804664722" y="39.333333333333336" width="169.44395195335275" height="8.333333333333334" as="geometry" />
        </mxCell>
        <mxCell id="P_EXMuqMaxGNaMI29JZp-44" value="Legend" style="text;html=1;strokeColor=none;fillColor=none;align=center;verticalAlign=middle;whiteSpace=wrap;rounded=0;fontSize=10;fontStyle=5;fontColor=#B3B3B3;" parent="P_EXMuqMaxGNaMI29JZp-37" vertex="1">
          <mxGeometry x="21.111603498542262" width="126.66962099125365" height="16.666666666666668" as="geometry" />
        </mxCell>
        <mxCell id="P_EXMuqMaxGNaMI29JZp-47" value="Boxes" parent="P_EXMuqMaxGNaMI29JZp-0" />
        <mxCell id="P_EXMuqMaxGNaMI29JZp-2" value="Testing Data" style="rounded=0;whiteSpace=wrap;html=1;strokeColor=#666666;strokeWidth=1;fillColor=#f5f5f5;fontSize=12;fontColor=#333333;align=center;" parent="P_EXMuqMaxGNaMI29JZp-47" vertex="1">
          <mxGeometry x="120" y="240" width="80" height="40" as="geometry" />
        </mxCell>
        <mxCell id="P_EXMuqMaxGNaMI29JZp-3" value="Use copies of Production Data" style="rounded=0;whiteSpace=wrap;html=1;strokeColor=#666666;strokeWidth=1;fillColor=none;fontSize=12;fontColor=#333333;align=center;" parent="P_EXMuqMaxGNaMI29JZp-47" vertex="1">
          <mxGeometry x="210" y="240" width="80" height="40" as="geometry" />
        </mxCell>
        <mxCell id="P_EXMuqMaxGNaMI29JZp-4" value="Use obfuscated Prod Data" style="rounded=0;whiteSpace=wrap;html=1;strokeColor=#666666;strokeWidth=1;fillColor=none;fontSize=12;fontColor=#333333;align=center;" parent="P_EXMuqMaxGNaMI29JZp-47" vertex="1">
          <mxGeometry x="300" y="240" width="80" height="40" as="geometry" />
        </mxCell>
        <mxCell id="P_EXMuqMaxGNaMI29JZp-5" value="Use Testing specific Data" style="rounded=0;whiteSpace=wrap;html=1;strokeColor=#666666;strokeWidth=1;fillColor=none;fontSize=12;fontColor=#333333;align=center;" parent="P_EXMuqMaxGNaMI29JZp-47" vertex="1">
          <mxGeometry x="390" y="240" width="80" height="40" as="geometry" />
        </mxCell>
        <mxCell id="P_EXMuqMaxGNaMI29JZp-6" value="Testing Process" style="rounded=0;whiteSpace=wrap;html=1;strokeColor=#666666;strokeWidth=1;fillColor=#f5f5f5;fontSize=12;fontColor=#333333;align=center;" parent="P_EXMuqMaxGNaMI29JZp-47" vertex="1">
          <mxGeometry x="120" y="290" width="80" height="40" as="geometry" />
        </mxCell>
        <mxCell id="P_EXMuqMaxGNaMI29JZp-7" value="Manual" style="rounded=0;whiteSpace=wrap;html=1;strokeColor=#666666;strokeWidth=1;fillColor=none;fontSize=12;fontColor=#333333;align=center;" parent="P_EXMuqMaxGNaMI29JZp-47" vertex="1">
          <mxGeometry x="210" y="290" width="80" height="40" as="geometry" />
        </mxCell>
        <mxCell id="P_EXMuqMaxGNaMI29JZp-8" value="Key Checks Automated" style="rounded=0;whiteSpace=wrap;html=1;strokeColor=#666666;strokeWidth=1;fillColor=none;fontSize=12;fontColor=#333333;align=center;" parent="P_EXMuqMaxGNaMI29JZp-47" vertex="1">
          <mxGeometry x="300" y="290" width="80" height="40" as="geometry" />
        </mxCell>
        <mxCell id="P_EXMuqMaxGNaMI29JZp-9" value="All Testing Automated" style="rounded=0;whiteSpace=wrap;html=1;strokeColor=#666666;strokeWidth=1;fillColor=none;fontSize=12;fontColor=#333333;align=center;" parent="P_EXMuqMaxGNaMI29JZp-47" vertex="1">
          <mxGeometry x="390" y="290" width="80" height="40" as="geometry" />
        </mxCell>
        <mxCell id="P_EXMuqMaxGNaMI29JZp-10" value="Test Scripts Developed When" style="rounded=0;whiteSpace=wrap;html=1;strokeColor=#666666;strokeWidth=1;fillColor=#f5f5f5;fontSize=12;fontColor=#333333;align=center;" parent="P_EXMuqMaxGNaMI29JZp-47" vertex="1">
          <mxGeometry x="120" y="440" width="80" height="40" as="geometry" />
        </mxCell>
        <mxCell id="P_EXMuqMaxGNaMI29JZp-11" value="After Functionality Development" style="rounded=0;whiteSpace=wrap;html=1;strokeColor=#666666;strokeWidth=1;fillColor=none;fontSize=12;fontColor=#333333;align=center;" parent="P_EXMuqMaxGNaMI29JZp-47" vertex="1">
          <mxGeometry x="210" y="440" width="80" height="40" as="geometry" />
        </mxCell>
        <mxCell id="P_EXMuqMaxGNaMI29JZp-12" value="Parallel to Functionality Development" style="rounded=0;whiteSpace=wrap;html=1;strokeColor=#666666;strokeWidth=1;fillColor=none;fontSize=12;fontColor=#333333;align=center;" parent="P_EXMuqMaxGNaMI29JZp-47" vertex="1">
          <mxGeometry x="300" y="440" width="80" height="40" as="geometry" />
        </mxCell>
        <mxCell id="P_EXMuqMaxGNaMI29JZp-13" value="Before System&lt;br style=&quot;font-size: 12px;&quot;&gt;Development" style="rounded=0;whiteSpace=wrap;html=1;strokeColor=#666666;strokeWidth=1;fillColor=none;fontSize=12;fontColor=#333333;align=center;" parent="P_EXMuqMaxGNaMI29JZp-47" vertex="1">
          <mxGeometry x="390" y="440" width="80" height="40" as="geometry" />
        </mxCell>
        <mxCell id="P_EXMuqMaxGNaMI29JZp-14" value="&lt;font style=&quot;font-size: 10px&quot;&gt;Test Automation Development By&lt;/font&gt;" style="rounded=0;whiteSpace=wrap;html=1;strokeColor=#666666;strokeWidth=1;fillColor=#f5f5f5;fontSize=12;fontColor=#333333;align=center;" parent="P_EXMuqMaxGNaMI29JZp-47" vertex="1">
          <mxGeometry x="120" y="490" width="80" height="40" as="geometry" />
        </mxCell>
        <mxCell id="P_EXMuqMaxGNaMI29JZp-15" value="Testers" style="rounded=0;whiteSpace=wrap;html=1;strokeColor=#666666;strokeWidth=1;fillColor=none;fontSize=12;fontColor=#333333;align=center;" parent="P_EXMuqMaxGNaMI29JZp-47" vertex="1">
          <mxGeometry x="210" y="490" width="80" height="40" as="geometry" />
        </mxCell>
        <mxCell id="P_EXMuqMaxGNaMI29JZp-16" value="Developers" style="rounded=0;whiteSpace=wrap;html=1;strokeColor=#666666;strokeWidth=1;fillColor=none;fontSize=12;fontColor=#333333;align=center;" parent="P_EXMuqMaxGNaMI29JZp-47" vertex="1">
          <mxGeometry x="300" y="490" width="80" height="40" as="geometry" />
        </mxCell>
        <mxCell id="P_EXMuqMaxGNaMI29JZp-17" value="Test team dedicated developers" style="rounded=0;whiteSpace=wrap;html=1;strokeColor=#666666;strokeWidth=1;fillColor=none;fontSize=12;fontColor=#333333;align=center;" parent="P_EXMuqMaxGNaMI29JZp-47" vertex="1">
          <mxGeometry x="390" y="490" width="80" height="40" as="geometry" />
        </mxCell>
        <mxCell id="P_EXMuqMaxGNaMI29JZp-18" value="Automated Testing Process" style="rounded=0;whiteSpace=wrap;html=1;strokeColor=#666666;strokeWidth=1;fillColor=#f5f5f5;fontSize=12;fontColor=#333333;align=center;" parent="P_EXMuqMaxGNaMI29JZp-47" vertex="1">
          <mxGeometry x="120" y="340" width="80" height="40" as="geometry" />
        </mxCell>
        <mxCell id="P_EXMuqMaxGNaMI29JZp-19" value="Adhoc" style="rounded=0;whiteSpace=wrap;html=1;strokeColor=#666666;strokeWidth=1;fillColor=none;fontSize=12;fontColor=#333333;align=center;" parent="P_EXMuqMaxGNaMI29JZp-47" vertex="1">
          <mxGeometry x="210" y="340" width="80" height="40" as="geometry" />
        </mxCell>
        <mxCell id="P_EXMuqMaxGNaMI29JZp-20" value="Screen Recordings" style="rounded=0;whiteSpace=wrap;html=1;strokeColor=#666666;strokeWidth=1;fillColor=none;fontSize=12;fontColor=#333333;align=center;" parent="P_EXMuqMaxGNaMI29JZp-47" vertex="1">
          <mxGeometry x="300" y="340" width="80" height="40" as="geometry" />
        </mxCell>
        <mxCell id="P_EXMuqMaxGNaMI29JZp-21" value="Coded tests" style="rounded=0;whiteSpace=wrap;html=1;strokeColor=#666666;strokeWidth=1;fillColor=none;fontSize=12;fontColor=#333333;align=center;" parent="P_EXMuqMaxGNaMI29JZp-47" vertex="1">
          <mxGeometry x="390" y="340" width="80" height="40" as="geometry" />
        </mxCell>
        <mxCell id="P_EXMuqMaxGNaMI29JZp-22" value="&lt;i&gt;System cannot be accredited as secure if dev/test environment is has insecure access to production data.&lt;/i&gt;" style="shape=note;whiteSpace=wrap;html=1;size=14;verticalAlign=top;align=left;spacingTop=-6;fontFamily=Helvetica;fontSize=12;fontColor=#000000;strokeColor=#000000;strokeWidth=1;" parent="P_EXMuqMaxGNaMI29JZp-47" vertex="1">
          <mxGeometry x="480" y="240" width="200" height="40" as="geometry" />
        </mxCell>
        <mxCell id="P_EXMuqMaxGNaMI29JZp-23" value="&lt;i&gt;System cannot be accredited as long-term maintainable if system relies on brittle manual steps.&lt;/i&gt;" style="shape=note;whiteSpace=wrap;html=1;size=14;verticalAlign=top;align=left;spacingTop=-6;fontFamily=Helvetica;fontSize=12;fontColor=#000000;strokeColor=#000000;strokeWidth=1;" parent="P_EXMuqMaxGNaMI29JZp-47" vertex="1">
          <mxGeometry x="480" y="290" width="200" height="40" as="geometry" />
        </mxCell>
        <mxCell id="P_EXMuqMaxGNaMI29JZp-24" value="&lt;i&gt;Screen recordings are inherently brittle, nor works with APIs as mandated by Design Principles.&lt;/i&gt;" style="shape=note;whiteSpace=wrap;html=1;size=14;verticalAlign=top;align=left;spacingTop=-6;fontFamily=Helvetica;fontSize=12;fontColor=#000000;strokeColor=#000000;strokeWidth=1;" parent="P_EXMuqMaxGNaMI29JZp-47" vertex="1">
          <mxGeometry x="480" y="340" width="200" height="40" as="geometry" />
        </mxCell>
        <mxCell id="P_EXMuqMaxGNaMI29JZp-25" value="&lt;i&gt;Test Scripts should be developed before development begins, clearly providing definition of Done.&lt;/i&gt;" style="shape=note;whiteSpace=wrap;html=1;size=14;verticalAlign=top;align=left;spacingTop=-6;fontFamily=Helvetica;fontSize=12;fontColor=#000000;strokeColor=#000000;strokeWidth=1;" parent="P_EXMuqMaxGNaMI29JZp-47" vertex="1">
          <mxGeometry x="480" y="440" width="200" height="40" as="geometry" />
        </mxCell>
        <mxCell id="P_EXMuqMaxGNaMI29JZp-26" value="&lt;i&gt;&lt;font style=&quot;font-size: 11px&quot;&gt;Testers are rarely capable of doing more than Screen Recordings. Use appropriate dev-skilled test resources.&lt;/font&gt;&lt;/i&gt;" style="shape=note;whiteSpace=wrap;html=1;size=14;verticalAlign=top;align=left;spacingTop=-6;fontFamily=Helvetica;fontSize=12;fontColor=#000000;strokeColor=#000000;strokeWidth=1;" parent="P_EXMuqMaxGNaMI29JZp-47" vertex="1">
          <mxGeometry x="480" y="490" width="200" height="40" as="geometry" />
        </mxCell>
        <mxCell id="47ZBoH_njCQLgoLsUxx3-0" value="UI Testing Platforms" style="rounded=0;whiteSpace=wrap;html=1;strokeColor=#666666;strokeWidth=1;fillColor=#f5f5f5;fontSize=12;fontColor=#333333;align=center;" parent="P_EXMuqMaxGNaMI29JZp-47" vertex="1">
          <mxGeometry x="120" y="390" width="80" height="40" as="geometry" />
        </mxCell>
        <mxCell id="47ZBoH_njCQLgoLsUxx3-1" value="Open Source&lt;br&gt;&lt;font style=&quot;font-size: 11px&quot;&gt;(eg: Selenium)&lt;/font&gt;" style="rounded=0;whiteSpace=wrap;html=1;strokeColor=#666666;strokeWidth=1;fillColor=none;fontSize=12;fontColor=#333333;align=center;" parent="P_EXMuqMaxGNaMI29JZp-47" vertex="1">
          <mxGeometry x="300" y="390" width="80" height="40" as="geometry" />
        </mxCell>
        <mxCell id="47ZBoH_njCQLgoLsUxx3-2" value="Commercial/&lt;br&gt;Closed Source" style="rounded=0;whiteSpace=wrap;html=1;strokeColor=#666666;strokeWidth=1;fillColor=none;fontSize=12;fontColor=#333333;align=center;" parent="P_EXMuqMaxGNaMI29JZp-47" vertex="1">
          <mxGeometry x="390" y="390" width="80" height="40" as="geometry" />
        </mxCell>
        <mxCell id="47ZBoH_njCQLgoLsUxx3-3" value="&lt;i&gt;Commercial test suites might add features, but also cost licenses -- for the &lt;u&gt;whole&lt;/u&gt; service lifetime..&lt;/i&gt;" style="shape=note;whiteSpace=wrap;html=1;size=14;verticalAlign=top;align=left;spacingTop=-6;fontFamily=Helvetica;fontSize=12;fontColor=#000000;strokeColor=#000000;strokeWidth=1;" parent="P_EXMuqMaxGNaMI29JZp-47" vertex="1">
          <mxGeometry x="480" y="390" width="200" height="40" as="geometry" />
        </mxCell>
        <mxCell id="47ZBoH_njCQLgoLsUxx3-5" value="None" style="rounded=0;whiteSpace=wrap;html=1;strokeColor=#666666;strokeWidth=1;fillColor=none;fontSize=12;fontColor=#333333;align=center;" parent="P_EXMuqMaxGNaMI29JZp-47" vertex="1">
          <mxGeometry x="210" y="390" width="80" height="40" as="geometry" />
        </mxCell>
        <mxCell id="P_EXMuqMaxGNaMI29JZp-48" value="Overlays" parent="P_EXMuqMaxGNaMI29JZp-0" />
        <mxCell id="P_EXMuqMaxGNaMI29JZp-30" value="" style="rounded=0;whiteSpace=wrap;html=1;shadow=0;glass=0;comic=0;strokeColor=#000000;fillColor=#E6E6E6;fontSize=12;align=center;strokeWidth=6;opacity=30;" parent="P_EXMuqMaxGNaMI29JZp-48" vertex="1">
          <mxGeometry x="390" y="240" width="80" height="40" as="geometry" />
        </mxCell>
        <mxCell id="P_EXMuqMaxGNaMI29JZp-31" value="" style="rounded=0;whiteSpace=wrap;html=1;shadow=0;glass=0;comic=0;strokeColor=#000000;fillColor=#E6E6E6;fontSize=12;align=center;strokeWidth=6;opacity=30;" parent="P_EXMuqMaxGNaMI29JZp-48" vertex="1">
          <mxGeometry x="390" y="290" width="80" height="40" as="geometry" />
        </mxCell>
        <mxCell id="P_EXMuqMaxGNaMI29JZp-32" value="" style="rounded=0;whiteSpace=wrap;html=1;shadow=0;glass=0;comic=0;strokeColor=#000000;fillColor=#E6E6E6;fontSize=12;align=center;strokeWidth=6;opacity=30;" parent="P_EXMuqMaxGNaMI29JZp-48" vertex="1">
          <mxGeometry x="390" y="340" width="80" height="40" as="geometry" />
        </mxCell>
        <mxCell id="P_EXMuqMaxGNaMI29JZp-33" value="" style="rounded=0;whiteSpace=wrap;html=1;shadow=0;glass=0;comic=0;strokeColor=#000000;fillColor=#E6E6E6;fontSize=12;align=center;strokeWidth=6;opacity=30;" parent="P_EXMuqMaxGNaMI29JZp-48" vertex="1">
          <mxGeometry x="390" y="440" width="80" height="40" as="geometry" />
        </mxCell>
        <mxCell id="P_EXMuqMaxGNaMI29JZp-34" value="" style="rounded=0;whiteSpace=wrap;html=1;shadow=0;glass=0;comic=0;strokeColor=#000000;fillColor=#E6E6E6;fontSize=12;align=center;strokeWidth=6;opacity=30;" parent="P_EXMuqMaxGNaMI29JZp-48" vertex="1">
          <mxGeometry x="390" y="490" width="80" height="40" as="geometry" />
        </mxCell>
        <mxCell id="47ZBoH_njCQLgoLsUxx3-4" value="" style="rounded=0;whiteSpace=wrap;html=1;shadow=0;glass=0;comic=0;strokeColor=#000000;fillColor=#E6E6E6;fontSize=12;align=center;strokeWidth=6;opacity=30;" parent="P_EXMuqMaxGNaMI29JZp-48" vertex="1">
          <mxGeometry x="300" y="390" width="80" height="40" as="geometry" />
        </mxCell>
      </root>
    </mxGraphModel>
  </diagram>
</mxfile>
